<svg width="240" height="71" viewBox="0 0 240 71" fill="none" xmlns="http://www.w3.org/2000/svg">
<g clip-path="url(#clip0)">
<path d="M125.683 27.5693C125.59 27.6542 125.59 27.6542 125.404 27.6542C125.311 27.6542 125.124 27.6542 125.031 27.6542C123.82 27.6542 122.609 27.6542 121.304 27.6542C121.304 27.8238 121.397 27.8238 121.584 27.8238C122.795 27.8238 124.099 27.8238 125.311 27.8238C125.404 27.8238 125.59 27.8238 125.683 27.8238C125.87 27.8238 125.87 27.739 125.776 27.6542C125.87 27.5693 125.776 27.5693 125.683 27.5693Z" fill="#EAAF7D"/>
<path d="M120.839 17.39C119.534 20.4438 118.23 23.4128 117.019 26.3818C116.926 26.3818 116.832 26.3818 116.739 26.3818C116.739 26.4666 116.739 26.4666 116.832 26.5515C117.019 26.5515 117.205 26.5515 117.391 26.5515C118.603 23.6673 119.814 20.868 121.118 17.9838C121.118 17.8141 121.025 17.7293 121.025 17.5596C120.932 17.4748 120.839 17.4748 120.839 17.39Z" fill="#EAAF7D"/>
<path d="M116.925 23.9217C116.925 24.0066 117.019 24.1762 117.112 24.3459C117.205 24.1762 117.205 24.1762 117.205 24.0914C116.18 21.5465 115.248 18.9169 114.224 16.372C114.13 16.2024 114.13 16.1175 113.944 16.1175V16.2024C114.969 18.7472 115.901 21.3769 116.925 23.9217Z" fill="#EAAF7D"/>
<path d="M112.919 17.7292C112.826 18.0685 112.733 18.4078 112.64 18.6623C112.081 21.0375 111.615 23.4127 111.056 25.7879C111.056 25.9575 110.963 26.1272 110.963 26.3817C110.963 26.721 111.149 27.0603 111.522 27.2299H111.615C111.428 27.0603 111.335 26.8906 111.335 26.5513C111.335 26.3817 111.335 26.1272 111.428 25.9575C111.987 23.5823 112.453 21.2071 113.012 18.8319C113.105 18.5774 113.105 18.4078 113.199 18.1533L112.919 17.7292Z" fill="#EAAF7D"/>
<path d="M123.168 16.2872C122.609 16.4568 122.329 16.7113 122.329 17.3051C122.329 17.6444 122.422 17.9838 122.515 18.3231C122.702 19.5107 122.981 20.7831 123.168 21.9707C123.354 23.1583 123.633 24.4307 123.82 25.6183C123.82 25.788 123.913 25.9576 123.913 26.1273C124.099 26.7211 124.379 27.1452 124.938 27.3149C124.565 27.0604 124.286 26.7211 124.192 26.297C124.099 26.1273 124.099 25.9576 124.099 25.788C123.913 24.6004 123.633 23.328 123.447 22.1404C123.261 20.9528 122.981 19.6803 122.795 18.4927C122.702 18.1534 122.702 17.8141 122.609 17.4748C122.609 16.9658 122.795 16.6265 123.447 16.4568C123.54 16.4568 123.727 16.372 123.82 16.372C123.913 16.1175 123.54 16.2024 123.54 16.2024C123.447 16.2024 123.354 16.2024 123.168 16.2872Z" fill="#EAAF7D"/>
<path d="M112.081 27.6542C111.056 27.6542 110.124 27.6542 109.099 27.6542C109.099 27.8238 109.192 27.8238 109.379 27.8238C110.404 27.8238 111.428 27.8238 112.36 27.8238C112.453 27.8238 112.546 27.8238 112.64 27.8238C112.64 27.739 112.64 27.739 112.64 27.6542C112.546 27.6542 112.453 27.5693 112.36 27.5693V27.6542C112.267 27.6542 112.174 27.6542 112.081 27.6542Z" fill="#EAAF7D"/>
<path d="M83.1056 16.796C84.5031 17.5595 85.4348 18.7471 85.9006 20.3588C86.2733 21.8009 86.1801 23.243 85.3416 24.6002C84.4099 26.212 83.0124 27.1451 81.0559 27.4844C80.4969 27.5692 80.0311 27.5692 79.4721 27.5692C77.795 27.5692 76.118 27.5692 74.5342 27.5692C74.5342 27.7389 74.6274 27.7389 74.8137 27.7389C76.4907 27.7389 78.1677 27.7389 79.8447 27.7389C80.4037 27.7389 80.8696 27.6541 81.4286 27.6541C83.3851 27.3996 84.7826 26.3816 85.7143 24.7699C86.4596 23.4126 86.5528 21.9706 86.2733 20.5285C85.8075 18.8319 84.5963 17.5595 83.1056 16.796Z" fill="#EAAF7D"/>
<path d="M77.236 25.8727C77.236 24.5154 77.236 23.243 77.236 21.8857C77.236 20.5285 77.236 19.1712 77.236 17.7291C77.236 16.8808 77.6087 16.7112 78.2608 16.6263C79.472 16.5415 80.6832 16.6263 81.8012 17.0505C81.708 17.0505 81.6148 16.9657 81.6148 16.8808C80.4037 16.3719 79.1925 16.287 77.9813 16.3719C77.3291 16.4567 76.9565 16.6263 76.9565 17.4746C76.9565 18.8319 76.9565 20.1891 76.9565 21.6312C76.9565 22.9885 76.9565 24.2609 76.9565 25.6182C76.9565 25.7878 76.9565 25.9575 76.9565 26.0423C76.9565 26.5513 77.236 26.8906 77.7018 26.9754C77.5155 26.8058 77.3292 26.5513 77.3292 26.1271C77.236 26.1271 77.236 25.9575 77.236 25.8727Z" fill="#EAAF7D"/>
<path d="M101.926 17.305C101.553 17.0505 101.18 16.7961 100.808 16.6264C101.087 16.7961 101.367 16.9657 101.553 17.1354C102.764 18.1533 103.416 19.3409 103.696 20.783C103.975 22.4796 103.603 24.0913 102.485 25.5334C101.46 26.8058 100.155 27.5693 98.4784 27.7389C97.2672 27.9086 96.056 27.7389 95.0312 27.23C96.1492 27.8238 97.4535 28.0782 98.7579 27.9086C100.435 27.6541 101.739 26.8906 102.764 25.7031C103.882 24.261 104.255 22.6492 103.975 20.9527C103.882 19.5106 103.23 18.2381 101.926 17.305Z" fill="#EAAF7D"/>
<path d="M93.82 24.0064C93.3542 22.3099 93.4474 20.6133 94.0995 19.0016C94.5654 17.814 95.4039 16.9657 96.7082 16.5415C97.7331 16.2022 98.8511 16.2871 99.7828 16.796C98.7579 16.2022 97.5467 16.0326 96.4287 16.3719C95.1244 16.796 94.2859 17.6443 93.82 18.8319C93.1679 20.4436 93.0747 22.1402 93.5405 23.8368C93.82 24.8547 94.2859 25.703 95.1244 26.3816C95.4039 26.6361 95.6834 26.8058 96.0561 26.9754C95.8697 26.8906 95.6834 26.721 95.4039 26.5513C94.4722 25.9575 94.0064 25.0244 93.82 24.0064Z" fill="#EAAF7D"/>
<path d="M142.826 27.5693C142.733 27.5693 142.64 27.4845 142.547 27.4845C142.547 27.5693 142.547 27.6541 142.36 27.6541C142.267 27.6541 142.174 27.6541 142.081 27.6541C140.87 27.6541 139.658 27.6541 138.447 27.6541C138.447 27.8238 138.54 27.8238 138.727 27.8238C139.938 27.8238 141.242 27.8238 142.453 27.8238C142.547 27.8238 142.64 27.8238 142.733 27.8238C142.826 27.8238 142.919 27.739 142.826 27.5693Z" fill="#EAAF7D"/>
<path d="M136.304 17.3051C135.466 19.341 134.627 21.4617 133.789 23.4976C133.882 23.4976 134.068 23.4976 134.161 23.4976C134.907 21.5465 135.652 19.5955 136.397 17.7292C136.397 17.6444 136.397 17.4747 136.304 17.3051Z" fill="#EAAF7D"/>
<path d="M138.447 24.0913C136.864 24.0913 135.373 24.0913 133.789 24.0913C133.603 24.0913 133.603 24.1761 133.51 24.261C133.323 24.8548 133.044 25.5334 132.857 26.1272C132.764 26.2968 132.764 26.5513 132.857 26.8058C132.951 27.0603 133.044 27.23 133.23 27.3148H133.323C133.23 27.23 133.137 27.1451 133.137 26.9755C133.044 26.721 133.044 26.5513 133.137 26.2968C133.323 25.6182 133.603 25.0244 133.789 24.4306C133.789 24.261 133.882 24.261 134.069 24.261C135.559 24.261 137.143 24.261 138.634 24.261C138.634 24.0913 138.541 24.0913 138.447 24.0913Z" fill="#EAAF7D"/>
<path d="M140.87 26.2969C141.056 26.721 141.429 27.0603 141.801 27.23H141.894C141.615 27.0603 141.335 26.721 141.149 26.3817C141.056 26.2969 141.056 26.212 141.056 26.1272C140.031 23.1582 139.006 20.1892 137.981 17.2202C137.795 16.7112 137.609 16.1174 137.422 15.6085H137.143C137.329 16.1174 137.516 16.6264 137.609 17.0505C138.634 20.0195 139.658 22.9885 140.683 25.9575C140.776 26.0424 140.87 26.212 140.87 26.2969Z" fill="#EAAF7D"/>
<path d="M133.696 27.6541C132.671 27.6541 131.739 27.6541 130.714 27.6541C130.714 27.739 130.714 27.8238 130.901 27.8238C131.925 27.8238 132.95 27.8238 133.975 27.8238C134.161 27.8238 134.161 27.739 134.068 27.5693C133.975 27.5693 133.882 27.5693 133.789 27.4845C133.882 27.6541 133.789 27.6541 133.696 27.6541Z" fill="#EAAF7D"/>
<path d="M31.677 48.4371C26.4596 44.7047 26.3664 41.1419 26.3664 41.1419H26.0869C26.1801 42.075 26.9254 45.2136 31.677 48.4371Z" fill="#EAAF7D"/>
<path d="M31.1181 30.6232H16.3976V30.8777H31.1181V30.6232Z" fill="#EAAF7D"/>
<path d="M34.2856 30.6231V30.8776H49.3788V22.8188H49.0061V30.6231H34.2856Z" fill="#EAAF7D"/>
<path d="M26.4596 40.3783V32.3196H25.9937V40.1239H9.50305V40.3783H26.4596Z" fill="#EAAF7D"/>
<path d="M55.8073 32.3196V40.1239H39.3167V40.3783H56.2732V32.3196H55.8073Z" fill="#EAAF7D"/>
<path d="M49.0063 41.7356V49.5398H32.5156H32.4224H32.0498H16.3976V49.7943H49.379V41.7356H49.0063Z" fill="#EAAF7D"/>
<path d="M32.7948 42.6687V19.8499H32.4221V42.0749L32.7948 42.6687Z" fill="#EAAF7D"/>
<path d="M29.8137 0.763457C25.3416 0.848285 20.7764 1.27243 16.3043 1.95106C12.1118 2.62968 7.91925 3.64763 4.00621 4.92005V8.39802V8.73734H3.63354H0.838509V62.7731H3.63354H4.00621V63.1124V65.2331C8.29193 66.5904 12.764 67.6083 17.3292 68.3718C22.1739 69.1352 27.1118 69.4745 31.9565 69.4745C36.7081 69.4745 41.646 69.1352 46.5839 68.3718C51.1491 67.6931 55.6211 66.6752 59.9068 65.2331V63.1124V62.7731H60.2795H63.0745V8.73734H60.2795H59.9068V8.39802V4.92005C55.9006 3.64763 51.8012 2.62968 47.6087 1.95106C43.0435 1.27243 38.4783 0.848285 34.0994 0.763457H29.8137ZM16.118 1.27243C20.6832 0.508971 25.2484 0.0848285 29.7205 0H34.0062C38.4783 0.0848285 43.1366 0.508971 47.6087 1.27243C51.9876 1.95106 56.1801 2.969 60.2795 4.32625L60.559 4.41108V4.66557V7.97388H63.354H63.7267V8.31319V63.0276V63.3669H63.354H60.559V65.4028V65.6573L60.2795 65.7421C55.9006 67.1842 51.2422 68.2869 46.5839 68.9656C41.646 69.729 36.7081 70.0683 31.8634 70.0683C27.0186 70.0683 22.0807 69.729 17.1429 68.9656C12.4845 68.2869 7.82609 67.1842 3.44721 65.7421L3.1677 65.6573V65.4028V63.3669H0.372671H0V63.0276V8.39802V7.97388H0.372671H3.1677V4.66557V4.41108L3.44721 4.32625C7.54658 2.969 11.8323 1.95106 16.118 1.27243Z" fill="#EAAF7D"/>
<path d="M29.8137 3.30844C25.8075 3.39327 21.7081 3.73258 17.7019 4.32638C13.9752 4.92018 10.3417 5.68364 6.8013 6.78641V10.6037V11.3671H6.05595H3.63359V60.2284H6.05595H6.89446V60.9918V63.5367C10.7143 64.6395 14.7206 65.4877 18.7268 66.0815C23.1056 66.6753 27.5777 67.0146 31.9566 67.0146C36.3355 67.0146 40.8075 66.6753 45.1864 66.0815C49.1926 65.4877 53.1988 64.6395 57.0187 63.5367V60.9918V60.2284H57.8572H60.2796V11.2823H57.8572H57.0187V10.5189V6.78641C53.4783 5.76846 49.8448 4.92018 46.2112 4.41121C42.1119 3.73258 38.0125 3.39327 34.0063 3.30844H29.8137ZM17.4224 2.8843C21.5218 2.2905 25.7143 1.86635 29.8137 1.78152H34.0994C38.1988 1.86635 42.3914 2.20567 46.4907 2.8843C50.4038 3.47809 54.3168 4.32638 58.1367 5.51398L58.6957 5.68364V6.19261V9.84023H61.1181H61.9566V10.6037V60.907V61.6704H61.1181H58.6957V63.9608V64.4698L58.1367 64.6394C54.0373 65.9119 49.7516 66.7602 45.4659 67.4388C40.9938 68.1174 36.4286 68.3719 31.9566 68.3719C27.5777 68.3719 23.0125 68.0326 18.4473 67.4388C14.1615 66.845 9.87583 65.9119 5.77645 64.6394L5.21745 64.4698V63.9608V61.6704H2.79509H2.04974V60.907V10.6037V9.84023H2.79509H5.21745V6.19261V5.68364L5.77645 5.51398C9.50316 4.41121 13.4162 3.56292 17.4224 2.8843Z" fill="#EAAF7D"/>
<path d="M18.0746 14.5906C18.0746 14.2513 18.1677 13.912 18.3541 13.6575H18.4472V13.7423C18.4472 14.0816 18.5404 14.3361 18.8199 14.5906C19.0994 14.8451 19.4721 14.9299 19.9379 14.9299C20.3106 14.9299 20.5901 14.8451 20.7764 14.6754C20.9628 14.5058 21.0559 14.3361 21.0559 14.0816C21.0559 13.912 20.9628 13.8272 20.8696 13.7423C20.7764 13.6575 20.5901 13.4878 20.4037 13.403L19.0062 12.5547C18.4472 12.2154 18.2609 11.8761 18.2609 11.3671C18.2609 11.2823 18.2609 11.2823 18.2609 11.1975C18.2609 10.7733 18.4472 10.5188 18.7267 10.2644C19.0062 10.0099 19.3789 9.92505 19.9379 9.92505C20.2174 9.92505 20.5901 9.92505 21.0559 10.0099H21.4286L21.3354 11.1126H21.2423C21.2423 10.8582 21.1491 10.6885 20.9628 10.5188C20.7764 10.3492 20.4969 10.2644 20.1242 10.2644C19.7516 10.2644 19.3789 10.3492 19.1926 10.6037C19.0994 10.6885 19.0062 10.8582 19.0062 10.943C19.0062 11.0278 19.0062 11.1126 19.0994 11.1975C19.1926 11.2823 19.3789 11.452 19.5652 11.6216L21.0559 12.5547C21.5218 12.8092 21.8013 13.2334 21.8013 13.6575C21.8013 14.1665 21.6149 14.5906 21.2423 14.8451C20.8696 15.0996 20.3106 15.2692 19.6584 15.2692C19.2857 15.2692 18.9131 15.2692 18.6336 15.1844C18.3541 15.0996 18.0746 15.0148 17.9814 14.8451C18.0746 14.8451 18.0746 14.7603 18.0746 14.5906Z" fill="#EAAF7D"/>
<path d="M23.1987 15.1844C23.2919 15.1844 23.4782 15.0996 23.5714 15.0148C23.6645 14.93 23.7577 14.8451 23.7577 14.6755V10.6037C23.7577 10.5189 23.6645 10.3492 23.5714 10.2644C23.4782 10.1796 23.385 10.0947 23.1987 10.0947H23.1055V10.1796H25.5279V10.2644H25.4347C25.3416 10.2644 25.1552 10.3492 25.0621 10.434C24.9689 10.5189 24.8757 10.6037 24.8757 10.7734V14.8451C24.8757 14.93 24.9689 15.0996 25.0621 15.1844C25.1552 15.2693 25.2484 15.3541 25.4347 15.3541H25.5279V15.4389H23.1055V15.3541H23.1987V15.1844Z" fill="#EAAF7D"/>
<path d="M33.0744 10.2746C32.8881 10.2746 32.7017 10.3594 32.6086 10.5291C32.6086 10.6139 32.5154 10.6987 32.5154 10.7835V14.4312C32.5154 14.7705 32.5154 15.025 32.6086 15.2795V15.3643L28.6024 11.8863V14.7705C28.6024 14.8553 28.6955 15.025 28.7887 15.1098C28.8819 15.1946 28.975 15.2795 29.1614 15.2795H29.3477H26.9254V15.1946H27.1117C27.2049 15.1946 27.3912 15.1098 27.4844 15.025C27.5775 14.9401 27.6707 14.8553 27.6707 14.6857V10.8684C27.6707 10.5291 27.6707 10.2746 27.5775 10.1049V10.0201H27.6707L31.6769 13.4981V10.6139C31.6769 10.5291 31.5837 10.3594 31.4906 10.2746C31.3974 10.1897 31.3042 10.1897 31.1179 10.1897H30.9316H33.3539V10.2746H33.0744Z" fill="#EAAF7D"/>
<path d="M37.6397 15.3541C36.6149 15.3541 35.7764 15.0996 35.2174 14.6755C34.6583 14.1665 34.3788 13.5727 34.3788 12.7244C34.3788 11.8761 34.6583 11.2823 35.2174 10.7734C35.7764 10.2644 36.6149 10.0947 37.6397 10.0947C38.3851 10.0947 39.0372 10.2644 39.5962 10.5189V11.7913H39.5031C39.2236 10.8582 38.5714 10.434 37.6397 10.434C36.9875 10.434 36.5217 10.6037 36.149 11.0278C35.7764 11.452 35.59 12.0458 35.59 12.7244C35.59 13.4879 35.7764 13.9968 36.149 14.421C36.5217 14.8451 36.9875 15.0996 37.5465 15.0996C38.1987 15.0996 38.6646 14.93 38.9441 14.6755C39.3167 14.421 39.5031 13.912 39.5962 13.1486H39.6894L39.7826 14.421C39.4099 15.0148 38.6646 15.3541 37.6397 15.3541Z" fill="#EAAF7D"/>
<path d="M41.1801 15.1946C41.2733 15.1946 41.4596 15.1098 41.5528 15.025C41.6459 14.9401 41.7391 14.8553 41.7391 14.6856V10.6139C41.7391 10.5291 41.6459 10.3594 41.6459 10.3594C41.5528 10.2746 41.3664 10.1897 41.2733 10.1897H41.1801H44.2546C44.5341 10.1897 44.7205 10.1897 44.9068 10.1049C45.0931 10.1049 45.1863 10.0201 45.1863 10.0201V11.2925H45.0931V11.2077C45.0931 10.8684 45 10.6987 44.7205 10.5291C44.6273 10.4442 44.441 10.4442 44.3478 10.4442H42.8571V12.5649H43.8819C44.0683 12.5649 44.2546 12.4801 44.3478 12.3953C44.441 12.3104 44.5341 12.1408 44.5341 11.9711V11.8863H44.7205V13.5829H44.6273C44.6273 13.4132 44.5341 13.2436 44.441 13.1587C44.3478 13.0739 44.1615 12.9891 43.9751 12.9891H42.8571V15.025H43.8819C44.2546 15.025 44.6273 14.9401 44.9068 14.6856C45.1863 14.516 45.3726 14.1767 45.4658 13.8374H45.559L45.2795 15.2794H41.0869V15.1946H41.1801Z" fill="#EAAF7D"/>
<path d="M18.0746 14.5906C18.0746 14.2513 18.1677 13.912 18.3541 13.6575H18.4472V13.7423C18.4472 14.0816 18.5404 14.3361 18.8199 14.5906C19.0994 14.8451 19.4721 14.9299 19.9379 14.9299C20.3106 14.9299 20.5901 14.8451 20.7764 14.6754C20.9628 14.5058 21.0559 14.3361 21.0559 14.0816C21.0559 13.912 20.9628 13.8272 20.8696 13.7423C20.7764 13.6575 20.5901 13.4878 20.4037 13.403L19.0062 12.5547C18.4472 12.2154 18.2609 11.8761 18.2609 11.3671C18.2609 11.2823 18.2609 11.2823 18.2609 11.1975C18.2609 10.7733 18.4472 10.5188 18.7267 10.2644C19.0062 10.0099 19.3789 9.92505 19.9379 9.92505C20.2174 9.92505 20.5901 9.92505 21.0559 10.0099H21.4286L21.3354 11.1126H21.2423C21.2423 10.8582 21.1491 10.6885 20.9628 10.5188C20.7764 10.3492 20.4969 10.2644 20.1242 10.2644C19.7516 10.2644 19.3789 10.3492 19.1926 10.6037C19.0994 10.6885 19.0062 10.8582 19.0062 10.943C19.0062 11.0278 19.0062 11.1126 19.0994 11.1975C19.1926 11.2823 19.3789 11.452 19.5652 11.6216L21.0559 12.5547C21.5218 12.8092 21.8013 13.2334 21.8013 13.6575C21.8013 14.1665 21.6149 14.5906 21.2423 14.8451C20.8696 15.0996 20.3106 15.2692 19.6584 15.2692C19.2857 15.2692 18.9131 15.2692 18.6336 15.1844C18.3541 15.0996 18.0746 15.0148 17.9814 14.8451C18.0746 14.8451 18.0746 14.7603 18.0746 14.5906Z" fill="#EAAF7D"/>
<path d="M23.1987 15.1844C23.2919 15.1844 23.4782 15.0996 23.5714 15.0148C23.6645 14.93 23.7577 14.8451 23.7577 14.6755V10.6037C23.7577 10.5189 23.6645 10.3492 23.5714 10.2644C23.4782 10.1796 23.385 10.0947 23.1987 10.0947H23.1055V10.1796H25.5279V10.2644H25.4347C25.3416 10.2644 25.1552 10.3492 25.0621 10.434C24.9689 10.5189 24.8757 10.6037 24.8757 10.7734V14.8451C24.8757 14.93 24.9689 15.0996 25.0621 15.1844C25.1552 15.2693 25.2484 15.3541 25.4347 15.3541H25.5279V15.4389H23.1055V15.3541H23.1987V15.1844Z" fill="#EAAF7D"/>
<path d="M33.0744 10.2746C32.8881 10.2746 32.7017 10.3594 32.6086 10.5291C32.6086 10.6139 32.5154 10.6987 32.5154 10.7835V14.4312C32.5154 14.7705 32.5154 15.025 32.6086 15.2795V15.3643L28.6024 11.8863V14.7705C28.6024 14.8553 28.6955 15.025 28.7887 15.1098C28.8819 15.1946 28.975 15.2795 29.1614 15.2795H29.3477H26.9254V15.1946H27.1117C27.2049 15.1946 27.3912 15.1098 27.4844 15.025C27.5775 14.9401 27.6707 14.8553 27.6707 14.6857V10.8684C27.6707 10.5291 27.6707 10.2746 27.5775 10.1049V10.0201H27.6707L31.6769 13.4981V10.6139C31.6769 10.5291 31.5837 10.3594 31.4906 10.2746C31.3974 10.1897 31.3042 10.1897 31.1179 10.1897H30.9316H33.3539V10.2746H33.0744Z" fill="#EAAF7D"/>
<path d="M37.6397 15.3541C36.6149 15.3541 35.7764 15.0996 35.2174 14.6755C34.6583 14.1665 34.3788 13.5727 34.3788 12.7244C34.3788 11.8761 34.6583 11.2823 35.2174 10.7734C35.7764 10.2644 36.6149 10.0947 37.6397 10.0947C38.3851 10.0947 39.0372 10.2644 39.5962 10.5189V11.7913H39.5031C39.2236 10.8582 38.5714 10.434 37.6397 10.434C36.9875 10.434 36.5217 10.6037 36.149 11.0278C35.7764 11.452 35.59 12.0458 35.59 12.7244C35.59 13.4879 35.7764 13.9968 36.149 14.421C36.5217 14.8451 36.9875 15.0996 37.5465 15.0996C38.1987 15.0996 38.6646 14.93 38.9441 14.6755C39.3167 14.421 39.5031 13.912 39.5962 13.1486H39.6894L39.7826 14.421C39.4099 15.0148 38.6646 15.3541 37.6397 15.3541Z" fill="#EAAF7D"/>
<path d="M41.1801 15.1946C41.2733 15.1946 41.4596 15.1098 41.5528 15.025C41.6459 14.9401 41.7391 14.8553 41.7391 14.6856V10.6139C41.7391 10.5291 41.6459 10.3594 41.6459 10.3594C41.5528 10.2746 41.3664 10.1897 41.2733 10.1897H41.1801H44.2546C44.5341 10.1897 44.7205 10.1897 44.9068 10.1049C45.0931 10.1049 45.1863 10.0201 45.1863 10.0201V11.2925H45.0931V11.2077C45.0931 10.8684 45 10.6987 44.7205 10.5291C44.6273 10.4442 44.441 10.4442 44.3478 10.4442H42.8571V12.5649H43.8819C44.0683 12.5649 44.2546 12.4801 44.3478 12.3953C44.441 12.3104 44.5341 12.1408 44.5341 11.9711V11.8863H44.7205V13.5829H44.6273C44.6273 13.4132 44.5341 13.2436 44.441 13.1587C44.3478 13.0739 44.1615 12.9891 43.9751 12.9891H42.8571V15.025H43.8819C44.2546 15.025 44.6273 14.9401 44.9068 14.6856C45.1863 14.516 45.3726 14.1767 45.4658 13.8374H45.559L45.2795 15.2794H41.0869V15.1946H41.1801Z" fill="#EAAF7D"/>
<path d="M23.2921 61.3412H23.4784V61.426H20.497V61.3412H20.6834C20.8697 61.3412 20.9629 61.2563 21.056 61.1715C21.1492 61.0867 21.2424 61.0018 21.2424 60.8322V56.2514C21.2424 55.9121 21.056 55.7425 20.6834 55.7425H20.4039V55.6576C21.4287 55.5728 22.1741 55.4032 22.5467 55.0638H22.6399V60.8322C22.6399 61.0018 22.7331 61.0867 22.8262 61.1715C23.0126 61.3412 23.1057 61.3412 23.2921 61.3412Z" fill="#EAAF7D"/>
<path d="M25.6213 61.2563C25.3418 61.1715 25.1554 61.0018 25.0622 60.7473C24.9691 60.4928 24.8759 60.3232 24.8759 59.9839C24.8759 59.3052 25.3418 58.7963 26.2734 58.457C25.6213 58.0328 25.2486 57.439 25.2486 56.8452C25.2486 56.3363 25.4349 55.9121 25.8076 55.5728C26.1803 55.2335 26.7393 55.0638 27.3914 55.0638C28.0436 55.0638 28.5095 55.2335 28.9753 55.488C29.348 55.7425 29.6275 56.1666 29.6275 56.5907C29.6275 56.8452 29.5343 57.0149 29.4411 57.1845C29.2548 57.5239 28.8821 57.7783 28.3231 57.8632C28.789 58.1177 29.0685 58.2025 29.1616 58.2873C29.2548 58.3721 29.348 58.457 29.4411 58.5418C29.5343 58.6266 29.6275 58.7115 29.6275 58.7963C29.7206 58.8811 29.7206 58.9659 29.8138 59.0508C29.907 59.2204 30.0001 59.4749 30.0001 59.7294C30.0001 60.3232 29.7206 60.7473 29.2548 61.0866C28.789 61.426 28.1368 61.5956 27.3914 61.5956C26.6461 61.5956 26.0871 61.426 25.6213 61.2563ZM27.3914 61.1715C27.7641 61.1715 28.0436 61.0866 28.3231 60.917C28.5095 60.7473 28.6958 60.4928 28.6958 60.2384C28.6958 59.9839 28.6026 59.7294 28.3231 59.5597C28.1368 59.3901 27.7641 59.2204 27.3914 59.0508C27.0188 58.8811 26.7393 58.7115 26.6461 58.7115C26.3666 59.0508 26.1803 59.3901 26.1803 59.8142C26.1803 60.2384 26.2734 60.5777 26.4598 60.8322C26.7393 61.0866 27.0188 61.1715 27.3914 61.1715ZM27.2983 55.488C27.1119 55.488 26.8324 55.5728 26.7393 55.7425C26.5529 55.9121 26.5529 56.0818 26.5529 56.4211C26.5529 56.6756 26.6461 56.9301 26.8324 57.0997C27.0188 57.2694 27.3914 57.5239 27.8573 57.7783C28.1368 57.5239 28.3231 57.0997 28.3231 56.5907C28.3231 56.1666 28.1368 55.8273 27.8573 55.6576C27.7641 55.488 27.5778 55.488 27.2983 55.488Z" fill="#EAAF7D"/>
<path d="M31.3046 55.7323C31.8636 55.3081 32.609 55.1385 33.5407 55.1385C34.1928 55.1385 34.7518 55.3081 35.1245 55.5626C35.4972 55.8171 35.6835 56.1564 35.6835 56.5806C35.6835 57.0047 35.5903 57.344 35.3108 57.5985C35.0313 57.853 34.7518 58.0227 34.3792 58.0227C34.7518 58.1075 35.1245 58.2771 35.4972 58.5316C35.8698 58.7861 36.0562 59.2102 36.0562 59.7192C36.0562 60.0585 35.963 60.3978 35.7767 60.7372C35.404 61.331 34.845 61.6703 34.0065 61.9248C33.5407 61.9248 33.168 61.9248 32.7953 61.9248C32.3295 61.9248 31.8636 61.8399 31.3978 61.6703V61.5854H31.491C31.9568 61.5854 32.4226 61.5006 32.8885 61.331C33.3543 61.1613 33.727 60.9068 33.9133 60.5675C34.1928 60.2282 34.286 59.8889 34.286 59.4647C34.286 58.7013 33.9133 58.2771 33.0748 58.0227C32.8885 57.9378 32.609 57.9378 32.3295 57.9378V57.853C32.3295 57.853 32.3295 57.853 32.4226 57.853C32.8885 57.853 33.2612 57.6833 33.5407 57.4289C33.8202 57.1744 34.0065 56.8351 34.0065 56.4109C34.0065 56.0716 33.9133 55.8171 33.6338 55.6475C33.4475 55.4778 33.168 55.393 32.8885 55.393C32.05 55.393 31.6773 55.8171 31.6773 56.7502C31.6773 56.7502 31.6773 56.8351 31.6773 56.9199H31.5841L31.3046 55.7323Z" fill="#EAAF7D"/>
<path d="M40.3417 58.1075C40.0622 58.1075 39.8759 58.1923 39.6895 58.3619L39.5963 58.2771C39.7827 58.0226 40.0622 57.7681 40.4349 57.6833C40.6212 57.5985 40.8075 57.5985 40.9939 57.5985C41.1802 57.5985 41.3665 57.5985 41.5529 57.6833C41.7392 57.6833 41.8324 57.7681 42.0187 57.853C42.5777 58.1923 42.8572 58.7013 42.8572 59.4647C42.8572 60.0585 42.6709 60.5675 42.205 60.9916C41.7392 61.4158 41.087 61.5854 40.2485 61.5854C39.41 61.5854 38.7578 61.3309 38.292 60.9068C37.8262 60.3978 37.6398 59.7192 37.6398 58.8709C37.6398 57.6833 38.0125 56.7502 38.7578 55.9867C39.1305 55.6474 39.5032 55.3929 40.0622 55.2233C40.6212 55.0536 41.1802 54.9688 41.7392 54.9688C41.8324 54.9688 41.9255 54.9688 42.0187 54.9688V55.0536C41.087 55.3081 40.4349 55.7323 39.969 56.1564C39.5964 56.5805 39.3168 57.1743 39.2237 57.853C39.2237 58.1923 39.1305 58.5316 39.1305 58.9557C39.1305 59.7192 39.2237 60.313 39.3168 60.6523C39.5032 60.9916 39.7827 61.2461 40.1554 61.2461C40.4349 61.2461 40.6212 61.1613 40.8075 60.9916C41.087 60.7371 41.2734 60.313 41.2734 59.6344C41.2734 58.7013 40.9939 58.2771 40.4349 58.1923C40.528 58.1075 40.4349 58.1075 40.3417 58.1075Z" fill="#EAAF7D"/>
<path d="M23.2921 61.3412H23.4784V61.426H20.497V61.3412H20.6834C20.8697 61.3412 20.9629 61.2563 21.056 61.1715C21.1492 61.0867 21.2424 61.0018 21.2424 60.8322V56.2514C21.2424 55.9121 21.056 55.7425 20.6834 55.7425H20.4039V55.6576C21.4287 55.5728 22.1741 55.4032 22.5467 55.0638H22.6399V60.8322C22.6399 61.0018 22.7331 61.0867 22.8262 61.1715C23.0126 61.3412 23.1057 61.3412 23.2921 61.3412Z" fill="#EAAF7D"/>
<path d="M25.6213 61.2563C25.3418 61.1715 25.1554 61.0018 25.0622 60.7473C24.9691 60.4928 24.8759 60.3232 24.8759 59.9839C24.8759 59.3052 25.3418 58.7963 26.2734 58.457C25.6213 58.0328 25.2486 57.439 25.2486 56.8452C25.2486 56.3363 25.4349 55.9121 25.8076 55.5728C26.1803 55.2335 26.7393 55.0638 27.3914 55.0638C28.0436 55.0638 28.5095 55.2335 28.9753 55.488C29.348 55.7425 29.6275 56.1666 29.6275 56.5907C29.6275 56.8452 29.5343 57.0149 29.4411 57.1845C29.2548 57.5239 28.8821 57.7783 28.3231 57.8632C28.789 58.1177 29.0685 58.2025 29.1616 58.2873C29.2548 58.3721 29.348 58.457 29.4411 58.5418C29.5343 58.6266 29.6275 58.7115 29.6275 58.7963C29.7206 58.8811 29.7206 58.9659 29.8138 59.0508C29.907 59.2204 30.0001 59.4749 30.0001 59.7294C30.0001 60.3232 29.7206 60.7473 29.2548 61.0866C28.789 61.426 28.1368 61.5956 27.3914 61.5956C26.6461 61.5956 26.0871 61.426 25.6213 61.2563ZM27.3914 61.1715C27.7641 61.1715 28.0436 61.0866 28.3231 60.917C28.5095 60.7473 28.6958 60.4928 28.6958 60.2384C28.6958 59.9839 28.6026 59.7294 28.3231 59.5597C28.1368 59.3901 27.7641 59.2204 27.3914 59.0508C27.0188 58.8811 26.7393 58.7115 26.6461 58.7115C26.3666 59.0508 26.1803 59.3901 26.1803 59.8142C26.1803 60.2384 26.2734 60.5777 26.4598 60.8322C26.7393 61.0866 27.0188 61.1715 27.3914 61.1715ZM27.2983 55.488C27.1119 55.488 26.8324 55.5728 26.7393 55.7425C26.5529 55.9121 26.5529 56.0818 26.5529 56.4211C26.5529 56.6756 26.6461 56.9301 26.8324 57.0997C27.0188 57.2694 27.3914 57.5239 27.8573 57.7783C28.1368 57.5239 28.3231 57.0997 28.3231 56.5907C28.3231 56.1666 28.1368 55.8273 27.8573 55.6576C27.7641 55.488 27.5778 55.488 27.2983 55.488Z" fill="#EAAF7D"/>
<path d="M31.3046 55.7323C31.8636 55.3081 32.609 55.1385 33.5407 55.1385C34.1928 55.1385 34.7518 55.3081 35.1245 55.5626C35.4972 55.8171 35.6835 56.1564 35.6835 56.5806C35.6835 57.0047 35.5903 57.344 35.3108 57.5985C35.0313 57.853 34.7518 58.0227 34.3792 58.0227C34.7518 58.1075 35.1245 58.2771 35.4972 58.5316C35.8698 58.7861 36.0562 59.2102 36.0562 59.7192C36.0562 60.0585 35.963 60.3978 35.7767 60.7372C35.404 61.331 34.845 61.6703 34.0065 61.9248C33.5407 61.9248 33.168 61.9248 32.7953 61.9248C32.3295 61.9248 31.8636 61.8399 31.3978 61.6703V61.5854H31.491C31.9568 61.5854 32.4226 61.5006 32.8885 61.331C33.3543 61.1613 33.727 60.9068 33.9133 60.5675C34.1928 60.2282 34.286 59.8889 34.286 59.4647C34.286 58.7013 33.9133 58.2771 33.0748 58.0227C32.8885 57.9378 32.609 57.9378 32.3295 57.9378V57.853C32.3295 57.853 32.3295 57.853 32.4226 57.853C32.8885 57.853 33.2612 57.6833 33.5407 57.4289C33.8202 57.1744 34.0065 56.8351 34.0065 56.4109C34.0065 56.0716 33.9133 55.8171 33.6338 55.6475C33.4475 55.4778 33.168 55.393 32.8885 55.393C32.05 55.393 31.6773 55.8171 31.6773 56.7502C31.6773 56.7502 31.6773 56.8351 31.6773 56.9199H31.5841L31.3046 55.7323Z" fill="#EAAF7D"/>
<path d="M40.3417 58.1075C40.0622 58.1075 39.8759 58.1923 39.6895 58.3619L39.5963 58.2771C39.7827 58.0226 40.0622 57.7681 40.4349 57.6833C40.6212 57.5985 40.8075 57.5985 40.9939 57.5985C41.1802 57.5985 41.3665 57.5985 41.5529 57.6833C41.7392 57.6833 41.8324 57.7681 42.0187 57.853C42.5777 58.1923 42.8572 58.7013 42.8572 59.4647C42.8572 60.0585 42.6709 60.5675 42.205 60.9916C41.7392 61.4158 41.087 61.5854 40.2485 61.5854C39.41 61.5854 38.7578 61.3309 38.292 60.9068C37.8262 60.3978 37.6398 59.7192 37.6398 58.8709C37.6398 57.6833 38.0125 56.7502 38.7578 55.9867C39.1305 55.6474 39.5032 55.3929 40.0622 55.2233C40.6212 55.0536 41.1802 54.9688 41.7392 54.9688C41.8324 54.9688 41.9255 54.9688 42.0187 54.9688V55.0536C41.087 55.3081 40.4349 55.7323 39.969 56.1564C39.5964 56.5805 39.3168 57.1743 39.2237 57.853C39.2237 58.1923 39.1305 58.5316 39.1305 58.9557C39.1305 59.7192 39.2237 60.313 39.3168 60.6523C39.5032 60.9916 39.7827 61.2461 40.1554 61.2461C40.4349 61.2461 40.6212 61.1613 40.8075 60.9916C41.087 60.7371 41.2734 60.313 41.2734 59.6344C41.2734 58.7013 40.9939 58.2771 40.4349 58.1923C40.528 58.1075 40.4349 58.1075 40.3417 58.1075Z" fill="#EAAF7D"/>
<path d="M120.466 17.2202C119.162 20.274 117.857 23.243 116.646 26.212C116.46 26.212 116.273 26.212 116.087 26.212C114.876 23.3279 113.758 20.4437 112.547 17.5595C112.547 17.5595 112.547 17.5595 112.453 17.5595C112.36 17.8989 112.267 18.2382 112.267 18.4926C111.708 20.8678 111.242 23.243 110.683 25.6182C110.683 25.7879 110.59 25.9576 110.59 26.212C110.59 26.6362 110.776 26.8907 111.242 27.0603C111.522 27.1452 111.801 27.23 112.081 27.3148C112.081 27.3996 112.081 27.3996 112.081 27.4845C111.988 27.4845 111.894 27.4845 111.801 27.4845C110.776 27.4845 109.752 27.4845 108.82 27.4845C108.727 27.4845 108.54 27.4845 108.54 27.3148C108.634 27.3148 108.727 27.3148 108.727 27.23C109.286 27.1452 109.658 26.8058 109.845 26.3817C110.031 25.9576 110.124 25.6182 110.217 25.1941C110.59 23.3279 111.056 21.4616 111.429 19.5954C111.522 19.0016 111.708 18.323 111.801 17.7292C111.801 17.4747 111.801 17.2202 111.801 16.9657C111.708 16.5416 111.429 16.2023 110.963 16.1175C110.87 16.1175 110.683 16.0326 110.59 16.0326C110.59 15.9478 110.59 15.9478 110.59 15.863C110.683 15.863 110.683 15.863 110.776 15.863C111.615 15.863 112.547 15.863 113.385 15.863C113.571 15.863 113.665 15.9478 113.665 16.1175C114.689 18.6623 115.621 21.292 116.646 23.8368C116.646 23.9217 116.739 24.0913 116.832 24.261C116.926 24.0913 116.926 24.0065 116.926 23.9217C118.044 21.292 119.162 18.6623 120.28 16.0326C120.373 15.863 120.466 15.7781 120.652 15.7781C121.491 15.7781 122.236 15.7781 123.075 15.7781C123.261 15.7781 123.354 15.7781 123.261 16.0326C123.168 16.0326 122.981 16.1175 122.888 16.1175C122.329 16.2871 122.05 16.5416 122.05 17.1354C122.05 17.4747 122.143 17.814 122.236 18.1533C122.422 19.3409 122.702 20.6134 122.888 21.801C123.075 22.9886 123.354 24.261 123.54 25.4486C123.54 25.6182 123.634 25.7879 123.634 25.9576C123.82 26.6362 124.286 27.1452 125.031 27.3148C125.124 27.3148 125.124 27.3148 125.217 27.3148C125.311 27.3996 125.217 27.4845 125.124 27.4845C125.031 27.4845 124.845 27.4845 124.752 27.4845C123.54 27.4845 122.236 27.4845 121.025 27.4845C120.932 27.4845 120.745 27.4845 120.745 27.3148C120.932 27.3148 121.118 27.3148 121.304 27.23C121.957 27.0603 122.236 26.6362 122.143 25.9576C121.863 24.5155 121.584 22.9886 121.304 21.5465C121.025 20.1892 120.839 18.7471 120.559 17.3899C120.466 17.3051 120.466 17.305 120.466 17.2202Z" fill="#EAAF7D"/>
<path d="M73.7889 27.3148C73.9753 27.3148 74.0684 27.23 74.2548 27.23C74.8138 27.0603 75.0933 26.721 75.0933 26.212C75.0933 25.9576 75.1865 25.7879 75.1865 25.5334C75.1865 22.9886 75.1865 20.3589 75.1865 17.814C75.1865 17.5595 75.1865 17.3899 75.0933 17.1354C75.0001 16.6264 74.6274 16.2023 74.0684 16.1175C73.9753 16.1175 73.8821 16.0326 73.7889 16.0326C73.6958 15.7781 73.6958 15.7781 73.9753 15.7781C74.5343 15.7781 75.0933 15.7781 75.6523 15.7781C76.9566 15.7781 78.3542 15.7781 79.6585 15.7781C82.4535 15.9478 84.8759 17.4747 85.5281 20.1892C85.9007 21.6313 85.8076 23.0734 84.9691 24.4306C84.0374 26.0424 82.6399 26.9755 80.6833 27.3148C80.1243 27.3996 79.6585 27.3996 79.0995 27.3996C77.4225 27.3996 75.7455 27.3996 74.0684 27.3996C73.8821 27.4845 73.6958 27.4845 73.7889 27.3148ZM76.584 21.5465C76.584 22.9037 76.584 24.1762 76.584 25.5334C76.584 25.7031 76.584 25.8727 76.584 25.9576C76.584 26.4665 76.8635 26.8058 77.3293 26.9755C77.5156 26.9755 77.702 27.0603 77.7951 27.0603C78.4473 27.0603 79.0063 27.0603 79.6585 27.0603C79.8448 27.0603 80.1243 27.0603 80.3107 26.9755C81.7082 26.6362 82.733 25.8727 83.3852 24.6003C83.7579 23.8368 83.9442 22.9886 84.0374 22.1403C84.1305 21.292 84.0374 20.4437 83.851 19.6803C83.4784 18.4078 82.6399 17.3899 81.3355 16.7961C80.1243 16.2871 78.9132 16.2023 77.702 16.2871C77.0498 16.3719 76.6771 16.5416 76.6771 17.3899C76.584 18.832 76.584 20.1892 76.584 21.5465Z" fill="#EAAF7D"/>
<path d="M91.1181 21.6415C91.1181 20.1146 91.5839 18.7574 92.7019 17.5698C94.0063 16.2125 95.5901 15.5339 97.5466 15.5339C98.9442 15.6187 100.155 16.1277 101.18 16.976C102.391 17.9939 103.044 19.1815 103.323 20.6236C103.603 22.3202 103.23 23.9319 102.112 25.374C101.087 26.6464 99.7827 27.4099 98.1057 27.5795C96.4286 27.834 94.8448 27.4099 93.5404 26.3919C92.1429 25.374 91.3976 24.0167 91.1181 22.405C91.1181 22.3202 91.1181 22.1505 91.0249 22.0657C91.1181 22.0657 91.1181 21.8112 91.1181 21.6415ZM101.739 22.7443C101.832 22.1505 101.832 21.4719 101.739 20.8781C101.739 20.5388 101.646 20.1994 101.553 19.8601C101.367 18.927 100.994 18.0787 100.249 17.3153C99.1305 16.2125 97.4535 15.7884 95.9628 16.2973C94.6584 16.7215 93.8199 17.5698 93.3541 18.7574C92.7019 20.3691 92.6088 22.0657 93.0746 23.7622C93.3541 24.7802 93.8199 25.6285 94.6584 26.3071C95.5901 27.0706 96.7081 27.4099 97.9193 27.2402C99.3168 26.9857 100.342 26.2223 100.994 25.0347C101.46 24.2712 101.646 23.5078 101.739 22.7443Z" fill="#EAAF7D"/>
<path d="M142.174 27.3148C142.174 27.4845 142.174 27.5693 141.988 27.5693C141.894 27.5693 141.801 27.5693 141.708 27.5693C140.497 27.5693 139.193 27.5693 137.981 27.5693C137.888 27.5693 137.702 27.5693 137.702 27.3148C137.795 27.3148 137.888 27.3148 137.981 27.3148C138.634 27.3148 139.099 26.8059 138.913 26.2121C138.727 25.5334 138.447 24.8548 138.261 24.0914C138.261 23.9217 138.168 23.9217 137.981 23.9217C136.398 23.9217 134.907 23.9217 133.323 23.9217C133.137 23.9217 133.137 24.0065 133.044 24.0914C132.857 24.6852 132.578 25.3638 132.391 25.9576C132.298 26.1272 132.298 26.3817 132.391 26.6362C132.485 27.0603 132.857 27.23 133.323 27.3148C133.323 27.3997 133.416 27.5693 133.23 27.5693C132.205 27.5693 131.18 27.5693 130.155 27.5693C129.969 27.5693 129.969 27.4845 129.969 27.3997C130.155 27.3997 130.248 27.3148 130.342 27.3148C130.994 27.1452 131.46 26.6362 131.646 26.0424C131.926 25.3638 132.205 24.6851 132.485 24.0065C133.23 22.0555 134.068 20.1044 134.814 18.1534C134.814 18.0685 134.907 17.9837 134.907 17.9837C135 17.5596 134.814 17.2202 134.255 17.2202C134.162 17.2202 133.975 17.2202 133.882 17.2202C133.882 17.1354 133.882 17.0506 133.882 16.9658C134.348 16.8809 134.814 16.7961 135.093 16.4568C135.466 16.2023 135.652 15.863 135.839 15.4388C136.118 15.4388 136.398 15.4388 136.677 15.4388C136.863 15.9478 137.05 16.5416 137.236 17.0506C138.261 20.0196 139.286 22.9886 140.311 25.9576C140.311 26.0424 140.404 26.1272 140.404 26.2121C140.87 26.721 141.335 27.23 142.174 27.3148ZM133.416 23.4127C135 23.4127 136.491 23.4127 137.981 23.4127C137.236 21.292 136.584 19.2561 135.839 17.2202C135.839 17.2202 135.839 17.2202 135.745 17.2202C135.093 19.2561 134.255 21.292 133.416 23.4127Z" fill="#EAAF7D"/>
<path d="M48.4472 40.9824V49.1259H31.4907V48.8714C31.5838 48.9563 31.677 49.0411 31.7702 49.0411C31.7702 49.0411 31.8633 49.0411 31.8633 49.1259C31.8633 49.1259 31.9565 49.1259 31.9565 49.0411C38.2919 45.0542 38.2919 40.9824 38.2919 40.9824H48.4472Z" fill="#EAAF7D"/>
<path d="M31.4906 48.7764V49.0309H15.3726V40.8874H25.4347C25.4347 40.9722 25.4347 44.7895 31.4906 48.7764Z" fill="#EAAF7D"/>
<path d="M30.4658 22.0689H15.3726V30.2125H30.4658V22.0689Z" fill="#EAAF7D"/>
<path d="M33.3404 30.0875H48.4336V21.944H33.3404V30.0875Z" fill="#EAAF7D"/>
<path d="M25.4348 31.5653H8.57141V39.7089H25.4348V31.5653Z" fill="#EAAF7D"/>
<path d="M38.421 39.6232H55.2844V31.4797H38.421V39.6232Z" fill="#EAAF7D"/>
<path d="M32.0484 48.9462V49.0412C31.956 49.0412 31.956 49.0412 32.0484 48.9462C31.956 49.0412 31.956 48.9462 32.0484 48.9462Z" fill="#EAAF7D"/>
<path d="M31.9561 49.0412C31.8637 49.0412 31.8637 49.0412 31.9561 49.0412C31.8637 49.0412 31.8637 48.9462 31.9561 49.0412C31.8637 48.9462 31.8637 49.0412 31.9561 49.0412Z" fill="#EAAF7D"/>
<path d="M31.8634 19.0865V41.9054L30.4659 39.615V19.0865H31.8634Z" fill="#EAAF7D"/>
<path d="M144.41 52.0847C144.41 52.5937 144.41 53.1027 144.317 53.6116H144.596C144.689 53.1875 144.689 52.7633 144.689 52.3392V40.8874H144.41C144.41 44.6198 144.41 48.3523 144.41 52.0847Z" fill="#EAAF7D"/>
<path d="M156.801 45.2135C156.149 44.959 155.497 44.7894 154.752 44.5349V44.4501C154.938 44.4501 155.124 44.3652 155.217 44.3652C156.988 44.0259 158.199 43.0928 158.665 41.4811C159.13 39.7845 158.571 38.3424 157.081 37.2397C155.87 36.3065 154.379 36.0521 152.888 35.9672C150.559 35.9672 148.23 35.9672 145.901 35.9672V36.2217H148.789C150.186 36.2217 151.584 36.2217 152.888 36.2217C154.565 36.2217 155.87 36.6458 156.894 37.4093C158.292 38.5121 158.851 39.8693 158.385 41.3962C158.012 42.8383 156.894 43.7714 155.124 44.1108C155.031 44.1108 154.565 44.1956 154.565 44.1956L154.286 44.2804L154.379 44.6197L154.565 44.7894C154.752 44.8742 155.031 44.959 155.217 44.959C155.683 45.1287 156.149 45.2135 156.522 45.3832C157.919 45.977 158.944 46.9949 159.41 48.1825C159.876 49.3701 159.783 50.5577 159.224 51.6605C158.478 53.1874 156.988 54.1205 154.845 54.5447C154.193 54.7143 153.54 54.7143 152.888 54.7143C151.304 54.7143 149.721 54.7143 148.137 54.7143H143.665H143.478C143.385 54.7991 143.292 54.884 143.199 54.9688C143.478 54.9688 143.571 54.9688 143.758 54.9688C146.926 54.9688 150 54.9688 153.168 54.9688C153.82 54.9688 154.565 54.884 155.217 54.7991C157.174 54.375 158.851 53.5267 159.783 51.8301C160.994 49.3701 159.689 46.4011 156.801 45.2135Z" fill="#EAAF7D"/>
<path d="M149.441 44.1108H150C150.186 44.1108 150.466 44.1108 150.652 44.1108C152.702 44.0259 154.379 42.7535 154.658 40.9721C155.031 39.1907 154.006 37.7486 152.143 37.3245C151.677 37.2397 151.118 37.1548 150.466 37.1548C150.279 37.1548 150.093 37.1548 149.907 37.1548C148.882 37.2397 148.416 37.6638 148.416 38.5969C148.416 39.1907 148.416 39.6997 148.416 40.2935V41.4811C148.416 41.9901 148.416 42.5839 148.416 43.0928C148.509 43.9411 148.696 44.1108 149.441 44.1108ZM148.696 38.6818C148.696 37.8335 148.975 37.4942 149.907 37.4093C150.652 37.4093 151.397 37.4093 152.143 37.579C153.913 38.0031 154.751 39.2756 154.472 40.9721C154.099 42.5839 152.609 43.7715 150.652 43.8563C150.279 43.8563 149.814 43.8563 149.441 43.8563C148.882 43.8563 148.696 43.7715 148.696 43.1777C148.696 42.4142 148.696 41.6508 148.696 40.8873C148.696 40.1238 148.696 39.4452 148.696 38.6818Z" fill="#EAAF7D"/>
<path d="M152.236 45.2985C151.491 45.1289 150.745 45.1289 150 45.1289H149.534C148.696 45.1289 148.509 45.553 148.509 46.2316C148.509 46.9103 148.509 47.5889 148.509 48.3524V50.2186C148.509 50.8972 148.509 51.5759 148.509 52.2545C148.509 53.2724 149.068 53.7814 150.186 53.8662C150.373 53.8662 150.559 53.8662 150.745 53.8662C151.025 53.8662 151.304 53.8662 151.584 53.8662C153.913 53.6966 155.59 52.1697 155.776 50.1338C155.963 47.8434 154.472 45.8075 152.236 45.2985ZM155.497 50.0489C155.311 51.9152 153.727 53.3573 151.584 53.5269C151.118 53.5269 150.652 53.5269 150.28 53.5269C149.348 53.4421 148.882 53.0179 148.789 52.1697C148.789 51.1517 148.789 50.1338 148.789 49.1158C148.789 48.0979 148.789 47.1648 148.789 46.1468C148.789 45.4682 148.975 45.2985 149.721 45.2985C150.559 45.2985 151.398 45.2985 152.236 45.4682C154.286 45.9772 155.683 47.9282 155.497 50.0489Z" fill="#EAAF7D"/>
<path d="M105.186 36.9851C104.534 36.8155 103.789 36.8155 103.323 36.8155H103.23C102.112 36.8155 101.553 37.2396 101.553 38.3424C101.553 40.1238 101.553 41.99 101.553 43.7714V45.1287C101.553 45.2135 101.553 45.2983 101.553 45.3831V45.8073L102.112 45.8921C102.298 45.8921 102.578 45.9769 102.764 45.9769C102.95 45.9769 103.137 45.9769 103.323 45.9769C106.304 45.9769 108.261 44.5349 108.54 41.99C108.82 39.9541 108.074 37.6637 105.186 36.9851ZM108.261 41.99C107.888 44.8742 105.466 45.8921 102.764 45.7225C102.484 45.7225 102.205 45.6376 101.832 45.6376C101.832 45.468 101.832 45.2983 101.832 45.2135C101.832 42.9231 101.832 40.7176 101.832 38.4272C101.832 37.4941 102.205 37.0699 103.323 37.0699C103.975 37.0699 104.534 37.1548 105.186 37.2396C107.702 37.8334 108.54 39.8693 108.261 41.99Z" fill="#EAAF7D"/>
<path d="M97.7327 52.8482C97.7327 52.7634 97.7327 52.5937 97.7327 52.5089V38.8515H97.4532C97.4532 43.4322 97.4532 47.9282 97.4532 52.5089C97.4532 52.5937 97.4532 52.7634 97.4532 52.8482H97.7327Z" fill="#EAAF7D"/>
<path d="M105.745 35.9673C107.981 36.2218 109.658 36.8156 110.963 37.8335C112.64 39.1908 113.292 41.057 112.64 43.0081C112.174 44.6198 110.869 45.7226 108.633 46.4012C108.54 46.4012 108.354 46.486 108.261 46.486L107.702 46.6557L107.795 46.9102C109.286 51.0668 111.242 54.2054 114.223 56.5806C114.503 56.7503 114.596 56.9199 114.689 56.9199C114.689 56.8351 114.782 56.8351 114.782 56.7503C111.428 54.0358 109.379 50.6426 108.074 46.8254C108.354 46.7405 108.54 46.7405 108.727 46.6557C110.776 46.0619 112.36 45.044 112.919 43.0929C113.571 41.057 112.919 39.106 111.149 37.6639C109.658 36.3915 107.795 35.9673 105.838 35.7128C103.696 35.4583 101.553 35.4583 99.503 35.628V35.8825C100.435 35.7977 101.273 35.7977 102.112 35.7977C103.23 35.7977 104.534 35.8825 105.745 35.9673Z" fill="#EAAF7D"/>
<path d="M101.832 52.6785C101.832 50.9819 101.832 49.2005 101.832 47.504C101.832 47.3343 101.832 47.2495 101.832 47.0798C102.484 47.1646 103.23 47.1646 103.882 47.2495C103.882 47.2495 103.882 47.3343 103.975 47.3343C104.068 47.2495 104.068 47.1646 104.161 47.1646L104.068 47.0798L101.646 46.9102V47.2495C101.646 47.3343 101.646 47.4191 101.646 47.504C101.646 47.504 101.646 51.5757 101.646 52.6785C101.646 53.4419 101.739 54.2054 102.298 54.7992H97.0807H96.708C96.6149 54.884 96.4285 54.9689 96.2422 55.0537H103.043C101.925 54.4599 101.832 53.6116 101.832 52.6785Z" fill="#EAAF7D"/>
<path d="M180.28 42.1597C180 40.3783 179.348 39.1058 178.323 38.0879C177.485 37.2396 176.46 36.8155 175.342 36.8155C174.317 36.8155 173.199 37.2396 172.454 38.0031C171.708 38.7665 171.149 39.6148 170.777 40.7176C169.938 43.4321 169.938 46.3163 170.497 49.5397C170.777 51.0666 171.429 52.1694 172.454 53.1025C173.292 53.866 174.317 54.2901 175.342 54.2901C176.367 54.2901 177.391 53.866 178.23 53.1025C178.789 52.5087 179.348 51.8301 179.721 50.9818C180.559 49.2004 180.559 47.3342 180.652 45.5528C180.652 45.2135 180.559 44.8742 180.559 44.5349C180.466 43.6866 180.466 42.9231 180.28 42.1597ZM179.441 50.897C179.068 51.6604 178.603 52.3391 178.044 52.9329C176.553 54.375 174.224 54.375 172.64 52.9329C171.615 51.9998 171.056 50.8122 170.777 49.4549C170.218 46.5707 170.124 43.6017 171.056 40.7176C171.336 39.7845 171.895 38.8513 172.64 38.1727C174.317 36.6458 176.646 36.7306 178.23 38.2575C179.348 39.3603 179.814 40.8024 180.093 42.2445C180.28 43.3473 180.28 44.45 180.373 45.5528C180.28 47.3342 180.28 49.2004 179.441 50.897Z" fill="#EAAF7D"/>
<path d="M176.18 35.628C172.174 35.2887 168.633 37.0701 166.956 40.2936C165.186 43.6867 165.093 47.1647 166.863 50.6426C169.845 56.5806 178.416 56.92 182.515 52.6785C184.472 50.6426 185.124 48.1826 185.217 45.5529C185.217 44.1108 185.031 42.7536 184.472 41.3963C182.981 37.9184 180.186 35.9673 176.18 35.628ZM182.236 52.5089C180.559 54.2903 178.043 55.3082 175.341 55.3082C171.708 55.3082 168.633 53.5268 167.049 50.5578C165.372 47.1647 165.372 43.7715 167.143 40.4632C168.633 37.579 171.708 35.8825 175.248 35.8825C175.528 35.8825 175.807 35.8825 176.18 35.8825C180.093 36.2218 182.795 38.088 184.192 41.566C184.658 42.7536 184.938 44.1108 184.938 45.6378C184.845 48.4371 184.006 50.7275 182.236 52.5089Z" fill="#EAAF7D"/>
<path d="M127.267 40.5479C127.267 40.4631 127.174 40.3783 127.174 40.2934L126.801 39.6996L123.261 48.3522H123.913C124.099 48.3522 124.192 48.3522 124.286 48.3522H129.503C129.782 48.3522 130.062 48.3522 130.248 48.0977C130.435 47.928 130.341 47.5887 130.248 47.3342C129.223 45.1287 128.292 42.8383 127.267 40.5479ZM129.503 48.1825C127.733 48.1825 126.056 48.1825 124.286 48.1825C124.099 48.1825 124.006 48.1825 123.727 48.1825C124.845 45.5528 125.869 43.008 126.894 40.3783C126.987 40.5479 127.081 40.6328 127.081 40.7176C128.012 43.008 129.037 45.2983 129.969 47.5887C130.155 48.0128 130.062 48.1825 129.503 48.1825Z" fill="#EAAF7D"/>
<path d="M119.814 53.7812C120.093 53.357 120.28 52.8481 120.466 52.3391C120.559 52.1694 120.652 51.915 120.745 51.7453C121.957 48.946 123.075 46.0618 124.286 43.2625L125.963 39.3604H125.683C124.006 43.4321 122.236 47.5887 120.559 51.6605C120.28 52.3391 120 53.1026 119.627 53.7812H119.814Z" fill="#EAAF7D"/>
<path d="M122.981 49.6247H130.901C131.273 50.7275 131.739 51.8303 132.112 52.933C132.205 53.2724 132.391 53.6117 132.391 53.8661H132.671C132.671 53.5268 132.578 53.1027 132.391 52.8482C132.112 52.0848 131.832 51.3213 131.553 50.473L131.087 49.2854H122.795C122.795 49.2854 122.515 50.1337 122.329 50.473C122.05 51.2365 121.677 52.0848 121.397 52.8482C121.118 53.6117 121.211 54.1206 121.863 54.6296H118.882H118.416C118.23 54.7144 118.137 54.7993 117.857 54.8841H122.422C121.491 54.2903 121.211 53.7813 121.491 52.8482C122.05 51.9151 122.515 50.8123 122.981 49.6247Z" fill="#EAAF7D"/>
<path d="M136.491 52.8483C134.441 47.7585 132.391 42.584 130.342 37.4943C130.062 36.7308 129.783 36.0522 129.503 35.3736C129.41 35.3736 129.317 35.3736 129.317 35.3736V35.6281L130.155 37.6639L131.646 41.4812C133.23 45.2985 134.72 49.2006 136.304 53.0179C136.584 53.6117 136.863 54.3752 137.422 54.8841H132.298H131.925C131.832 54.969 131.739 55.0538 131.553 55.1386H138.075C137.236 54.5448 136.863 53.6965 136.491 52.8483Z" fill="#EAAF7D"/>
<path d="M80.2175 38.5121C80.2175 43.1777 80.2175 47.7584 80.2175 52.424C80.2175 52.8481 80.2175 53.2723 80.1244 53.6964H80.4039C80.497 53.2723 80.497 52.8481 80.497 52.424V38.5121C80.497 37.4942 80.1244 37.1548 79.0063 37.1548C77.8883 37.1548 76.8635 37.579 76.025 38.3424C75.5591 38.7666 75.0933 39.2756 74.5343 40.039C74.3479 40.2935 74.2548 40.2935 74.1616 40.2935H74.0684H73.9753C73.9753 40.2935 73.9753 40.2935 73.8821 40.2935L73.7889 40.3783V40.4632C74.2548 40.6328 74.5343 40.4632 74.7206 40.1238C75.1865 39.53 75.6523 39.0211 76.1181 38.5121C76.8635 37.8335 77.7952 37.3245 78.9132 37.3245C80.0312 37.4093 80.2175 37.6638 80.2175 38.5121Z" fill="#EAAF7D"/>
<path d="M80.3104 38.5969C80.3104 43.1776 80.3104 47.6736 80.3104 52.2543C80.3104 52.7633 80.3104 53.2722 80.2172 53.6964H80.4967C80.5899 53.2722 80.5899 52.7633 80.5899 52.3391V38.6817C80.5899 37.579 80.2172 37.2397 79.0061 37.2397C77.9812 37.2397 77.0495 37.579 76.211 38.3424C75.652 38.8514 75.093 39.53 74.6272 40.1238H74.534C74.4408 40.2087 74.3477 40.2935 74.3477 40.2935C74.2545 40.3783 74.2545 40.4631 74.1613 40.548C74.534 40.548 74.534 40.4631 74.8135 40.1238C75.2793 39.53 75.7452 38.9362 76.3973 38.4273C77.1427 37.8335 77.9812 37.4093 79.0061 37.4093C80.0309 37.4093 80.3104 37.6638 80.3104 38.5969Z" fill="#EAAF7D"/>
<path d="M234.596 53.1874C234.596 53.1026 234.596 52.933 234.596 52.8481C234.596 52.0847 234.596 51.406 234.596 50.6426V42.9232H234.317C234.317 45.2984 234.317 47.6736 234.317 50.1336C234.317 51.0667 234.317 51.9998 234.317 52.933C234.317 53.0178 234.317 53.1874 234.317 53.2723H234.596V53.1874Z" fill="#EAAF7D"/>
<path d="M238.789 52.8481C238.789 52.5936 238.789 52.4239 238.789 52.1695C238.789 47.6736 238.789 43.1776 238.789 38.7666C238.789 37.7486 238.789 36.6459 240.093 35.9672H239.627C239.534 36.0521 239.348 36.2217 239.348 36.2217C238.603 36.9852 238.603 37.9183 238.603 38.6817V52.3391C238.603 52.5088 238.603 52.6784 238.603 52.8481C238.603 53.5267 238.696 54.2053 239.255 54.7143H234.037H233.665C233.571 54.7991 233.478 54.884 233.385 54.884V54.9688H240C238.882 54.5447 238.789 53.6964 238.789 52.8481Z" fill="#EAAF7D"/>
<path d="M155.776 44.4503C154.938 44.111 153.727 43.8565 153.727 43.8565L154.006 43.7717C154.006 43.7717 154.379 43.6868 154.565 43.6868C156.335 43.3475 157.453 42.4144 157.826 40.9723C158.292 39.3606 157.733 38.0033 156.335 36.9854C155.311 36.2219 154.006 35.7978 152.329 35.7978C150.932 35.7978 149.627 35.7978 148.23 35.7978H143.292C144.037 36.3916 144.13 37.2399 144.13 38.0882V52C144.13 52.8483 144.13 53.7814 143.385 54.5449H147.857C149.441 54.5449 151.025 54.5449 152.609 54.5449C153.261 54.5449 153.913 54.46 154.565 54.3752C156.708 53.9511 158.199 53.0179 158.944 51.491C159.503 50.3883 159.596 48.6917 159.13 47.5041C158.385 46.1469 157.453 45.2137 155.776 44.4503ZM147.671 39.9544C147.671 39.3606 147.671 38.8516 147.671 38.2578C147.671 37.2399 148.137 36.8157 149.161 36.8157C149.348 36.8157 149.534 36.8157 149.72 36.8157C150.373 36.8157 150.932 36.9006 151.398 36.9854C153.261 37.4095 154.286 38.8516 153.913 40.633C153.54 42.4144 151.957 43.602 149.907 43.7717C149.72 43.7717 149.441 43.7717 149.255 43.7717H148.696C147.95 43.7717 147.764 43.602 147.671 42.9234C147.671 42.4144 147.671 41.8206 147.671 41.3116V39.9544ZM154.938 49.7096C154.752 51.7455 153.075 53.1876 150.745 53.4421C150.466 53.4421 150.186 53.4421 149.907 53.4421C149.72 53.4421 149.534 53.4421 149.348 53.4421C148.23 53.3573 147.671 52.8483 147.671 51.8303C147.671 51.1517 147.671 50.4731 147.671 49.7945V47.9282C147.671 47.2496 147.671 46.571 147.671 45.8075C147.671 45.1289 147.857 44.7048 148.696 44.7048H149.161C149.907 44.7048 150.652 44.7048 151.398 44.8744C153.727 45.3834 155.217 47.3344 154.938 49.7096Z" fill="#EAAF7D"/>
<path d="M106.956 46.4861L106.863 46.2316L107.422 46.062C107.609 46.062 107.702 45.9771 107.795 45.9771C110.031 45.3833 111.335 44.2806 111.801 42.584C112.36 40.5481 111.801 38.7667 110.124 37.4094C108.82 36.3915 107.236 35.7977 104.907 35.5432C103.695 35.3736 102.484 35.3736 101.18 35.3736C99.5961 35.3736 97.9191 35.4584 96.0557 35.7129C96.8011 36.3067 96.8942 37.0701 96.9874 37.8336C96.9874 38.0032 96.9874 38.1729 96.9874 38.3426V52.0848C96.9874 52.7634 96.9874 53.6965 96.2421 54.46H101.459C100.9 53.8662 100.807 53.1027 100.807 52.3393C100.807 51.2365 100.807 47.1647 100.807 47.1647C100.807 47.0799 100.807 46.9951 100.807 46.9102V46.5709L103.23 46.7406L103.323 46.9102C105.466 51.1517 108.727 54.3751 113.292 56.8352C113.571 57.0048 114.317 57.2593 114.317 57.2593C110.683 54.3751 108.447 50.7275 106.956 46.4861ZM102.577 45.4682C102.391 45.4682 102.205 45.4682 102.018 45.4682C101.832 45.4682 101.553 45.4682 101.366 45.3833L100.807 45.2985V44.8744C100.807 44.7895 100.807 44.7047 100.807 44.6199V43.2626C100.807 41.4812 100.807 39.615 100.807 37.8336C100.807 36.7308 101.273 36.3067 102.484 36.3067H102.577C103.136 36.3067 103.789 36.3067 104.441 36.4763C107.329 37.0701 108.074 39.4453 107.795 41.4812C107.422 44.0261 105.559 45.4682 102.577 45.4682Z" fill="#EAAF7D"/>
<path d="M175.342 35.3736C175.062 35.3736 174.689 35.3736 174.41 35.3736C170.87 35.3736 167.888 37.0701 166.304 39.9543C164.534 43.3474 164.534 46.7406 166.211 50.0489C167.702 53.0179 170.776 54.7993 174.503 54.7993C177.205 54.7993 179.721 53.7813 181.398 51.9999C183.075 50.2185 184.006 47.9282 184.006 45.044C184.006 43.5171 183.82 42.2447 183.261 40.9722C181.957 37.6639 179.255 35.7129 175.342 35.3736ZM178.975 50.5579C178.603 51.4061 178.137 52.0848 177.485 52.6786C176.739 53.442 175.714 53.8662 174.596 53.8662C173.571 53.8662 172.547 53.442 171.708 52.6786C170.683 51.7455 170.031 50.5579 169.752 49.1158C169.099 45.8923 169.193 43.0081 170.031 40.2936C170.311 39.2757 170.87 38.3426 171.708 37.5791C172.547 36.8156 173.571 36.3915 174.596 36.3915C175.714 36.3915 176.739 36.8157 177.578 37.6639C178.603 38.6819 179.255 39.9543 179.534 41.7357C179.627 42.4992 179.721 43.2626 179.814 44.0261C179.814 44.3654 179.907 44.7047 179.907 45.044C179.814 46.9102 179.721 48.7765 178.975 50.5579Z" fill="#EAAF7D"/>
<path d="M130.807 40.9722L129.317 37.1549L128.478 35.119C128.385 35.119 128.292 35.119 128.199 35.119C127.733 35.119 127.453 35.2038 126.988 35.5432C126.522 35.8825 125.87 36.2218 125.311 36.4763C125.124 36.5611 124.938 36.6459 124.752 36.7308H124.658C125.497 37.2397 125.59 37.7487 125.124 38.7666L123.447 42.7536C122.236 45.5529 121.118 48.4371 119.907 51.2364C119.814 51.4061 119.721 51.6606 119.627 51.8302C119.255 52.7634 118.975 53.6116 118.044 54.2903H121.025C120.466 53.7813 120.373 53.1875 120.559 52.424C120.839 51.5758 121.118 50.8123 121.491 50.0488C121.584 49.7095 121.957 48.8612 121.957 48.8612H130.248L130.714 50.0488C130.994 50.8123 131.273 51.5758 131.553 52.424C131.739 53.0178 132.019 53.6965 131.46 54.2903H136.584C136.025 53.6965 135.652 53.0178 135.466 52.424C133.975 48.6068 132.391 44.7895 130.807 40.9722ZM129.41 47.7585C129.224 47.9281 128.944 48.013 128.665 48.013H123.447C123.354 48.013 123.261 48.013 123.075 48.013L122.422 47.9281L125.963 39.2756L126.335 39.8694C126.429 39.9542 126.429 40.0391 126.429 40.1239C127.36 42.4143 128.385 44.7046 129.317 46.995C129.503 47.2495 129.596 47.504 129.41 47.7585Z" fill="#EAAF7D"/>
<path d="M74.5341 35.7977L73.4161 39.8695H73.5092C73.6024 39.8695 73.6024 39.8695 73.7887 39.6998L73.8819 39.615C74.3478 39.0212 74.9068 38.4274 75.4658 37.8336C76.3043 37.0701 77.2359 36.7308 78.2608 36.7308C79.472 36.7308 79.8446 37.0701 79.8446 38.1729V51.8303C79.8446 52.6786 79.8446 53.6117 79.0993 54.2903H84.3167C83.7577 53.6965 83.6645 52.8482 83.6645 52.0848V38.0881C83.6645 38.0033 83.6645 37.8336 83.6645 37.6639C83.6645 37.0701 84.0372 36.7308 84.5962 36.7308C84.7825 36.7308 84.8757 36.7308 85.062 36.7308C85.5279 36.7308 85.9937 36.7308 86.4595 36.9005C88.1366 37.4095 89.0682 38.6819 89.6272 39.615C89.8136 39.8695 89.9067 39.8695 89.9067 39.8695C89.9067 39.8695 89.9067 39.8695 89.9999 39.8695L88.8819 35.7129H74.5341V35.7977Z" fill="#EAAF7D"/>
<path d="M196.025 38.5121C196.025 43.1777 196.025 47.7584 196.025 52.424C196.025 52.8481 196.025 53.2723 195.932 53.6964H196.211C196.304 53.2723 196.304 52.8481 196.304 52.424V38.5121C196.304 37.4942 195.932 37.1548 194.814 37.1548C193.696 37.1548 192.671 37.579 191.832 38.3424C191.366 38.7666 190.901 39.2756 190.342 40.039C190.155 40.2935 190.062 40.2935 189.969 40.2935H189.876H189.783C189.783 40.2935 189.783 40.2935 189.689 40.2935L189.596 40.3783V40.4632C190.062 40.6328 190.342 40.4632 190.528 40.1238C190.994 39.53 191.46 39.0211 191.925 38.5121C192.671 37.8335 193.602 37.3245 194.72 37.3245C195.745 37.4093 196.025 37.6638 196.025 38.5121Z" fill="#EAAF7D"/>
<path d="M205.528 35.9672H205.342V36.2217L206.46 40.3783C206.46 40.3783 206.46 40.3783 206.366 40.3783C206.273 40.3783 206.18 40.3783 205.994 40.1238C205.155 38.7666 204.13 37.9183 202.826 37.4093C202.36 37.2396 201.894 37.1548 201.149 37.1548C200.124 37.1548 200.031 37.7486 199.938 38.1728C199.938 38.2576 199.938 38.4272 199.938 38.5121V52.0846C199.938 52.3391 199.938 52.5088 199.938 52.7633V53.0177C199.938 53.5267 200.031 54.1205 200.59 54.7143H199.379V54.9688H201.429C200.59 54.5447 200.404 53.866 200.311 53.0177C200.311 52.7633 200.311 52.4239 200.311 52.1695C200.311 47.6736 200.311 43.1776 200.311 38.6817C200.311 38.5121 200.311 38.4272 200.311 38.2576C200.404 37.6638 200.59 37.4093 201.242 37.4093C201.801 37.4093 202.36 37.4093 202.826 37.579C204.224 38.0879 205.062 39.021 205.807 40.1238C206.087 40.548 206.273 40.548 206.739 40.3783C206.366 39.021 205.901 37.4941 205.528 35.9672Z" fill="#EAAF7D"/>
<path d="M196.025 38.5969C196.025 43.1776 196.025 47.6736 196.025 52.2543C196.025 52.7633 196.025 53.2722 195.932 53.6964H196.211C196.304 53.2722 196.304 52.7633 196.304 52.3391V38.6817C196.304 37.579 195.932 37.2397 194.72 37.2397C193.696 37.2397 192.764 37.579 191.925 38.3424C191.366 38.8514 190.807 39.53 190.342 40.1238L190.248 40.2087C190.155 40.2935 190.062 40.3783 190.062 40.3783C189.969 40.4631 189.969 40.548 189.876 40.6328C190.248 40.6328 190.248 40.548 190.528 40.2087C190.994 39.6149 191.46 39.0211 192.112 38.5121C192.857 37.9183 193.696 37.4941 194.72 37.4941C195.745 37.4093 196.025 37.6638 196.025 38.5969Z" fill="#EAAF7D"/>
<path d="M205.528 35.9672H204.13V36.2217H205.248L206.366 40.3783C206.366 40.3783 206.366 40.3783 206.273 40.3783C206.18 40.3783 205.994 40.3783 205.807 40.2086C205.248 39.2755 204.41 38.0031 202.733 37.4941C202.267 37.3245 201.801 37.3245 201.335 37.3245C201.149 37.3245 201.056 37.3245 200.87 37.3245C200.311 37.3245 199.938 37.6638 199.938 38.2576C199.938 38.4272 199.938 38.5121 199.938 38.6817V52.6784C199.938 53.4419 200.031 54.2053 200.59 54.884H196.956H194.907C194.814 54.9688 194.72 55.0536 194.534 55.1384H201.242C200.217 54.5446 200.124 53.6964 200.124 52.6784C200.124 52.5936 200.124 52.5088 200.124 52.4239C200.124 47.8432 200.124 43.2625 200.124 38.5969C200.124 38.5121 200.124 38.3424 200.124 38.2576C200.124 37.8334 200.311 37.579 200.776 37.579C201.335 37.579 201.988 37.579 202.547 37.7486C203.944 38.1728 204.689 39.2755 205.435 40.3783C205.621 40.7176 206.087 40.7176 206.46 40.6328C206.366 39.021 205.901 37.4941 205.528 35.9672Z" fill="#EAAF7D"/>
<path d="M89.8137 35.9672H88.5094V36.2217H89.6274L90.7454 40.3783C90.7454 40.3783 90.7454 40.3783 90.6522 40.3783C90.5591 40.3783 90.3727 40.3783 90.1864 40.2086C89.6274 39.2755 88.7889 38.0031 87.1119 37.4941C86.646 37.3245 86.1802 37.3245 85.7143 37.3245C85.528 37.3245 85.4348 37.3245 85.2485 37.3245C84.6895 37.3245 84.3168 37.6638 84.3168 38.2576C84.3168 38.4272 84.3168 38.5121 84.3168 38.6817V52.6784C84.3168 53.4419 84.41 54.2053 84.969 54.884H81.3355H79.2858C79.1926 54.9688 79.0994 55.0536 78.9131 55.1384H85.6212C84.5963 54.5446 84.5032 53.6964 84.5032 52.6784C84.5032 52.5936 84.5032 52.5088 84.5032 52.4239C84.5032 47.8432 84.5032 43.2625 84.5032 38.5969C84.5032 38.5121 84.5032 38.3424 84.5032 38.2576C84.5032 37.8334 84.6895 37.579 85.1553 37.579C85.7143 37.579 86.3665 37.579 86.9255 37.7486C88.323 38.1728 89.0684 39.2755 89.8137 40.3783C90.0001 40.7176 90.4659 40.7176 90.8386 40.6328C90.6522 39.021 90.2796 37.4941 89.8137 35.9672Z" fill="#EAAF7D"/>
<path d="M190.248 35.7977L189.13 39.8695H189.224C189.317 39.8695 189.317 39.8695 189.503 39.6998L189.596 39.615C190.062 39.0212 190.621 38.4274 191.18 37.8336C192.019 37.0701 192.95 36.7308 193.975 36.7308C195.186 36.7308 195.559 37.0701 195.559 38.1729V51.8303C195.559 52.6786 195.559 53.6117 194.814 54.2903H200.031C199.472 53.6965 199.379 52.8482 199.379 52.0848V38.0881C199.379 38.0033 199.379 37.8336 199.379 37.6639C199.379 37.0701 199.752 36.7308 200.311 36.7308C200.497 36.7308 200.59 36.7308 200.776 36.7308C201.242 36.7308 201.708 36.7308 202.174 36.9005C203.851 37.4095 204.783 38.6819 205.342 39.615C205.528 39.8695 205.621 39.8695 205.621 39.8695C205.621 39.8695 205.621 39.8695 205.714 39.8695L204.596 35.7129H190.248V35.7977Z" fill="#EAAF7D"/>
<path d="M217.547 38.5121C217.547 43.1777 217.547 47.7584 217.547 52.424C217.547 52.8481 217.547 53.2723 217.453 53.6964H217.733C217.826 53.2723 217.826 52.8481 217.826 52.424V38.5121C217.826 37.4942 217.453 37.1548 216.335 37.1548C215.217 37.1548 214.193 37.579 213.354 38.3424C212.888 38.7666 212.422 39.2756 211.863 40.039C211.677 40.2935 211.584 40.2935 211.491 40.2935H211.397H211.304C211.304 40.2935 211.304 40.2935 211.211 40.2935L211.118 40.3783V40.4632C211.584 40.6328 211.863 40.4632 212.05 40.1238C212.515 39.53 212.981 39.0211 213.447 38.5121C214.193 37.8335 215.124 37.3245 216.242 37.3245C217.267 37.4093 217.547 37.6638 217.547 38.5121Z" fill="#EAAF7D"/>
<path d="M217.547 38.5969C217.547 43.1776 217.547 47.6736 217.547 52.2543C217.547 52.7633 217.547 53.2722 217.453 53.6964H217.733C217.826 53.2722 217.826 52.7633 217.826 52.3391V38.6817C217.826 37.579 217.453 37.2397 216.242 37.2397C215.217 37.2397 214.286 37.579 213.447 38.3424C212.888 38.8514 212.329 39.53 211.863 40.1238L211.77 40.2087C211.677 40.2935 211.584 40.3783 211.584 40.3783C211.491 40.4631 211.491 40.548 211.398 40.6328C211.77 40.6328 211.77 40.548 212.05 40.2087C212.516 39.6149 212.981 39.0211 213.634 38.5121C214.379 37.9183 215.217 37.4941 216.242 37.4941C217.267 37.4093 217.547 37.6638 217.547 38.5969Z" fill="#EAAF7D"/>
<path d="M227.05 35.9672H225.652V36.2217H226.77L227.888 40.3783C227.888 40.3783 227.888 40.3783 227.795 40.3783C227.702 40.3783 227.516 40.3783 227.329 40.2086C226.77 39.2755 225.932 38.0031 224.255 37.4941C223.789 37.3245 223.323 37.3245 222.857 37.3245C222.671 37.3245 222.578 37.3245 222.391 37.3245C221.832 37.3245 221.46 37.6638 221.46 38.2576C221.46 38.4272 221.46 38.5121 221.46 38.6817V52.6784C221.46 53.4419 221.553 54.2053 222.112 54.884H218.478H216.429C216.336 54.9688 216.242 55.0536 216.056 55.1384H222.764C221.739 54.5446 221.646 53.6964 221.646 52.6784C221.646 52.5936 221.646 52.5088 221.646 52.4239C221.646 47.8432 221.646 43.2625 221.646 38.5969C221.646 38.5121 221.646 38.3424 221.646 38.2576C221.646 37.8334 221.832 37.579 222.298 37.579C222.857 37.579 223.509 37.579 224.068 37.7486C225.466 38.1728 226.211 39.2755 226.957 40.3783C227.143 40.7176 227.609 40.7176 227.981 40.6328C227.888 39.021 227.422 37.4941 227.05 35.9672Z" fill="#EAAF7D"/>
<path d="M211.77 35.7978L210.652 39.9544H210.745C210.838 39.9544 210.838 39.9544 211.025 39.7847L211.118 39.6999C211.584 39.1061 212.143 38.5123 212.702 37.9185C213.54 37.155 214.472 36.8157 215.497 36.8157C216.708 36.8157 217.081 37.155 217.081 38.2578V51.9152C217.081 52.7635 217.081 53.6966 216.335 54.3752H221.553C220.994 53.7814 220.9 52.9331 220.9 52.1697V38.173C220.9 38.0882 220.9 37.9185 220.9 37.7488C220.9 37.155 221.273 36.8157 221.832 36.8157C222.018 36.8157 222.112 36.8157 222.298 36.8157C222.764 36.8157 223.23 36.8157 223.695 36.9854C225.372 37.4944 226.304 38.7668 226.863 39.6999C227.049 39.9544 227.143 39.9544 227.143 39.9544C227.143 39.9544 227.143 39.9544 227.236 39.9544L226.118 35.7978H211.77Z" fill="#EAAF7D"/>
<path d="M237.671 51.9152V38.2578C237.671 37.4095 237.671 36.4764 238.416 35.7978H233.012C233.758 36.4764 233.758 37.3247 233.758 38.173C233.758 38.3426 233.758 38.4275 233.758 38.5971C233.758 38.682 233.758 38.7668 233.758 38.8516V50.3035C233.758 51.0669 233.758 51.7455 233.758 52.509C233.758 53.1876 233.664 53.9511 233.012 54.46H238.23C237.671 53.9511 237.578 53.2724 237.578 52.5938C237.671 52.2545 237.671 52.0849 237.671 51.9152Z" fill="#EAAF7D"/>
</g>
<defs>
<clipPath id="clip0">
<rect width="240" height="70.238" fill="white"/>
</clipPath>
</defs>
</svg>
